<?xml version="1.0" standalone="no"?>
<!DOCTYPE svg PUBLIC "-//W3C//DTD SVG 20010904//EN"
 "http://www.w3.org/TR/2001/REC-SVG-20010904/DTD/svg10.dtd">
<svg version="1.0" xmlns="http://www.w3.org/2000/svg"
 width="700.000000pt" height="700.000000pt" viewBox="0 0 700.000000 700.000000"
 preserveAspectRatio="xMidYMid meet">
<metadata>
Created by potrace 1.11, written by Peter Selinger 2001-2013
</metadata>
<g transform="translate(0.000000,700.000000) scale(0.100000,-0.100000)"
fill="#000000" stroke="none">
<path d="M6795 6934 c-33 -8 -109 -26 -170 -40 -60 -14 -117 -27 -125 -29 -8
-2 -41 -11 -72 -19 -32 -9 -71 -18 -87 -21 -17 -3 -42 -10 -56 -15 -14 -5 -36
-12 -48 -14 -85 -15 -576 -159 -807 -236 -566 -187 -1005 -390 -1229 -567
-378 -299 -338 -596 119 -896 417 -273 1278 -576 2360 -832 214 -51 234 -51
256 2 14 34 14 38 -3 62 -15 19 -40 30 -109 48 -49 12 -103 24 -119 27 -36 6
-501 125 -630 161 -222 62 -360 103 -515 153 -942 304 -1470 614 -1474 867 -2
203 348 451 994 702 405 158 1111 366 1670 492 184 42 193 46 193 103 0 35
-33 68 -67 67 -11 0 -48 -7 -81 -15z"/>
<path d="M832 6229 c-70 -12 -173 -53 -238 -95 -131 -82 -251 -248 -280 -385
-19 -94 -22 -123 -19 -194 5 -98 8 -114 39 -199 143 -394 637 -553 981 -316
102 70 178 161 230 273 59 130 74 274 43 411 -18 79 -69 198 -95 224 -7 7 -13
16 -13 20 0 13 -85 98 -134 136 -62 47 -134 84 -211 108 -71 22 -227 31 -303
17z m280 -157 c247 -88 390 -332 342 -582 -46 -245 -259 -420 -509 -420 -138
0 -253 49 -355 149 -107 105 -155 221 -154 371 2 232 156 430 384 491 84 23
213 19 292 -9z"/>
<path d="M2560 6224 c-220 -47 -423 -235 -485 -448 -25 -84 -27 -104 -27 -196
-1 -206 98 -399 267 -526 48 -37 153 -88 200 -99 6 -2 29 -8 51 -14 49 -13
170 -17 233 -7 470 75 709 607 452 1006 -115 179 -313 290 -526 295 -57 2
-128 -3 -165 -11z m255 -139 c182 -42 329 -182 385 -367 31 -102 16 -252 -36
-363 -37 -77 -148 -190 -225 -228 -208 -103 -437 -67 -599 93 -98 98 -151 222
-152 357 -1 91 11 142 52 228 104 219 342 334 575 280z"/>
<path d="M6388 3713 c-17 -20 -162 -316 -298 -608 -195 -420 -316 -707 -389
-921 -98 -289 -99 -348 -14 -604 70 -207 236 -608 369 -889 30 -62 54 -115 54
-117 0 -4 158 -333 228 -474 l48 -95 45 -3 c52 -3 73 13 72 56 0 15 -48 124
-106 244 -58 119 -129 267 -157 330 -29 62 -63 136 -77 163 -14 28 -63 138
-109 245 -47 107 -89 204 -94 215 -13 27 -66 162 -102 260 -47 127 -89 276
-92 330 -3 58 11 124 53 252 66 199 235 603 371 888 33 69 60 128 60 131 0 2
57 120 126 262 70 141 127 269 127 284 1 58 -78 93 -115 51z"/>
<path d="M1855 3680 c-50 -20 -49 -10 -48 -514 1 -439 7 -689 17 -768 3 -18 7
-57 11 -87 10 -95 36 -204 61 -257 62 -132 204 -207 431 -229 32 -3 74 -8 93
-10 81 -11 481 -22 940 -26 197 -1 282 1 298 10 45 24 37 102 -12 121 -13 5
-141 9 -283 10 -502 3 -916 17 -1038 35 -22 4 -53 9 -70 11 -60 9 -151 45
-181 72 -62 54 -84 125 -109 352 -11 101 -16 349 -17 770 0 258 -4 456 -10
471 -7 20 -48 52 -61 48 -1 0 -11 -4 -22 -9z"/>
<path d="M4729 2289 c-130 -19 -218 -113 -260 -278 -60 -234 22 -482 183 -551
129 -55 312 -5 414 114 42 49 87 141 104 214 12 53 7 168 -10 201 -4 9 -20 44
-36 79 -66 146 -240 244 -395 221z m125 -150 c82 -23 167 -138 182 -247 10
-78 -34 -190 -97 -249 -63 -58 -188 -82 -245 -49 -69 41 -105 142 -101 284 2
85 7 105 34 164 47 101 112 129 227 97z"/>
<path d="M58 1898 c-33 -31 -35 -54 -8 -88 22 -29 -38 -25 570 -34 449 -7 659
-16 770 -31 131 -18 199 -39 250 -76 75 -55 102 -151 126 -459 2 -25 6 -292 8
-594 4 -526 5 -550 24 -568 10 -11 27 -21 38 -22 27 -5 71 20 76 42 6 23 1
1064 -6 1152 -5 68 -19 211 -21 220 -1 3 -5 28 -10 55 -32 194 -119 301 -286
353 -57 18 -91 24 -199 38 -129 16 -258 21 -755 29 -231 4 -449 8 -485 9 -58
1 -68 -2 -92 -26z"/>
</g>
</svg>
